<svg width="8" height="10" viewBox="0 0 8 10" fill="none" xmlns="http://www.w3.org/2000/svg">
<path d="M3.25002 6.689V1C3.25002 0.801088 3.32904 0.610322 3.46969 0.46967C3.61034 0.329018 3.80111 0.25 4.00002 0.25C4.19893 0.25 4.3897 0.329018 4.53035 0.46967C4.671 0.610322 4.75002 0.801088 4.75002 1V6.689L6.72002 4.72C6.78962 4.6504 6.87225 4.59519 6.96319 4.55752C7.05413 4.51985 7.15159 4.50047 7.25002 4.50047C7.34845 4.50047 7.44592 4.51985 7.53686 4.55752C7.62779 4.59519 7.71042 4.6504 7.78002 4.72C7.84962 4.7896 7.90483 4.87223 7.9425 4.96317C7.98017 5.0541 7.99956 5.15157 7.99956 5.25C7.99956 5.34843 7.98017 5.4459 7.9425 5.53683C7.90483 5.62777 7.84962 5.7104 7.78002 5.78L4.53002 9.03C4.3894 9.17045 4.19877 9.24934 4.00002 9.24934C3.80127 9.24934 3.61065 9.17045 3.47002 9.03L0.220021 5.78C0.150421 5.7104 0.0952108 5.62777 0.0575433 5.53683C0.0198757 5.4459 0.000488282 5.34843 0.000488281 5.25C0.000488281 5.15157 0.0198757 5.0541 0.0575433 4.96317C0.0952108 4.87223 0.150421 4.7896 0.220021 4.72C0.289622 4.6504 0.37225 4.59519 0.463188 4.55752C0.554125 4.51985 0.651591 4.50047 0.750021 4.50047C0.848452 4.50047 0.945918 4.51985 1.03686 4.55752C1.12779 4.59519 1.21042 4.6504 1.28002 4.72L3.25002 6.689Z" fill="white"/>
</svg>
