<svg width="14" height="5" viewBox="0 0 14 5" fill="none" xmlns="http://www.w3.org/2000/svg">
<path d="M1.75 5C1.28587 5 0.840752 4.81563 0.512563 4.48744C0.184374 4.15925 0 3.71413 0 3.25V0.75C2.96403e-09 0.551088 0.0790177 0.360323 0.21967 0.21967C0.360322 0.079018 0.551088 0 0.75 0C0.948912 0 1.13968 0.079018 1.28033 0.21967C1.42098 0.360323 1.5 0.551088 1.5 0.75V3.25C1.5 3.388 1.612 3.5 1.75 3.5H12.25C12.3163 3.5 12.3799 3.47366 12.4268 3.42678C12.4737 3.37989 12.5 3.3163 12.5 3.25V0.75C12.5 0.551088 12.579 0.360323 12.7197 0.21967C12.8603 0.079018 13.0511 0 13.25 0C13.4489 0 13.6397 0.079018 13.7803 0.21967C13.921 0.360323 14 0.551088 14 0.75V3.25C14 3.71413 13.8156 4.15925 13.4874 4.48744C13.1592 4.81563 12.7141 5 12.25 5H1.75Z" fill="white"/>
</svg>
